<svg width="60" height="60" viewBox="0 0 60 60" fill="none" xmlns="http://www.w3.org/2000/svg">
<g clip-path="url(#clip0_262_416)">
<rect width="60" height="60" rx="15" fill="white"/>
<rect width="60" height="60" rx="12" fill="white"/>
<rect width="11.8194" height="60" fill="#5B93CE"/>
<rect x="12" width="12" height="60" fill="#F1AF69"/>
<rect x="24" width="11" height="60" fill="#7A7878"/>
<rect x="35" width="14" height="60" fill="#4DB479"/>
<rect x="49" width="11" height="60" fill="#E86265"/>
<path fill-rule="evenodd" clip-rule="evenodd" d="M30.4986 7C31.1451 7 31.765 7.22292 32.2221 7.61971C32.6792 8.01651 32.936 8.55468 32.936 9.11584V13.2565C33.014 13.9971 33.1026 14.7369 33.2017 15.476C33.7441 15.5275 34.251 15.7355 34.6411 16.0667C35.0312 16.3979 35.282 16.8331 35.3534 17.3027C35.4247 17.7723 35.3125 18.2491 35.0346 18.6568C34.7567 19.0644 34.3293 19.3794 33.8208 19.5511L33.9744 20.4271C34.6447 24.1552 35.6586 28.6154 37.0991 32.39H37.8109C38.3561 32.3899 38.8857 32.5485 39.3149 32.8404C39.7441 33.1323 40.0482 33.5408 40.1785 34.0004C40.3087 34.46 40.2577 34.9443 40.0335 35.3758C39.8093 35.8073 39.4249 36.161 38.9418 36.3805C39.3773 37.176 39.8404 37.9617 40.3311 38.7375H42.6857C43.2847 38.7357 43.8636 38.9255 44.3117 39.2706C44.7598 39.6157 45.0459 40.092 45.1152 40.6085C45.1845 41.125 45.0323 41.6456 44.6876 42.0709C44.3428 42.4962 43.8298 42.7964 43.2463 42.9142C45.1231 45.3855 47.1535 47.8018 49.3959 50.0382C49.7047 50.3442 49.9053 50.7209 49.9738 51.1233C50.0423 51.5257 49.9757 51.9366 49.7821 52.307C49.5884 52.6774 49.2759 52.9915 48.8818 53.2117C48.4878 53.4318 48.0291 53.5487 47.5605 53.5484H37.8109C37.3983 53.5485 36.9925 53.4577 36.6314 53.2845C36.2704 53.1113 35.9658 52.8614 35.7464 52.5582L35.5977 52.3191C35.2698 51.7557 34.8403 51.2414 34.3254 50.7957C33.4333 50.0022 32.1975 49.3167 30.4986 49.3167C28.7998 49.3167 27.564 50.0022 26.6719 50.7957C26.2647 51.1534 25.908 51.5519 25.6092 51.9827L25.3996 52.3191C25.2045 52.6861 24.8924 52.9969 24.5001 53.2148C24.1079 53.4326 23.652 53.5484 23.1864 53.5484H13.4368C12.9681 53.5483 12.5095 53.4309 12.1157 53.2103C11.722 52.9897 11.4099 52.6753 11.2167 52.3047C11.0235 51.934 10.9575 51.5229 11.0266 51.1206C11.0957 50.7182 11.297 50.3417 11.6063 50.0361C13.8462 47.7975 15.8717 45.3876 17.751 42.9142C17.1675 42.7964 16.6544 42.4962 16.3097 42.0709C15.965 41.6456 15.8127 41.125 15.8821 40.6085C15.9514 40.092 16.2374 39.6157 16.6856 39.2706C17.1337 38.9255 17.7125 38.7357 18.3116 38.7375H20.6661C21.1569 37.9617 21.62 37.176 22.0554 36.3805C21.5723 36.161 21.1879 35.8073 20.9638 35.3758C20.7396 34.9443 20.6885 34.46 20.8188 34.0004C20.9491 33.5408 21.2531 33.1323 21.6823 32.8404C22.1115 32.5485 22.6411 32.3899 23.1864 32.39H23.8981C25.1778 29.0364 26.1235 25.1369 26.7865 21.6945L27.1764 19.5511C26.6679 19.3794 26.2405 19.0644 25.9627 18.6568C25.6848 18.2491 25.5726 17.7723 25.6439 17.3027C25.7153 16.8331 25.9661 16.3979 26.3562 16.0667C26.7463 15.7355 27.2531 15.5275 27.7955 15.476C27.8947 14.7355 27.984 13.995 28.0637 13.2544V9.11584C28.0637 8.55468 28.3205 8.01651 28.7776 7.61971C29.2347 7.22292 29.8522 7 30.4986 7ZM33.7233 36.6217H27.2739L26.7328 37.686L26.1576 38.7375H34.8397L34.2644 37.686L33.7233 36.6217Z" fill="white"/>
</g>
<defs>
<clipPath id="clip0_262_416">
<rect width="60" height="60" rx="15" fill="white"/>
</clipPath>
</defs>
</svg>
